<?xml version="1.0" encoding="utf-8"?>
<svg viewBox="0 0 500 500" width="24" height="24" xmlns="http://www.w3.org/2000/svg">
  <path fill="currentColor" d="M 250 500 C 211.611 500 173.225 485.355 143.934 456.066 L 43.934 356.066 C -14.645 297.487 -14.645 202.514 43.934 143.935 C 100.532 87.337 191.104 85.422 250 138.191 C 308.898 85.423 399.47 87.339 456.066 143.935 C 514.645 202.514 514.645 297.487 456.066 356.066 L 356.066 456.066 C 326.777 485.355 288.389 500 250 500 Z M 314.186 204.745 C 296.924 204.745 282.931 218.738 282.931 236 C 282.931 253.262 296.924 267.255 314.186 267.255 C 331.448 267.255 345.441 253.262 345.441 236 C 345.441 218.738 331.448 204.745 314.186 204.745 Z M 185.814 204.745 C 168.552 204.745 154.559 218.738 154.559 236 C 154.559 253.262 168.552 267.255 185.814 267.255 C 203.076 267.255 217.069 253.262 217.069 236 C 217.069 218.738 203.076 204.745 185.814 204.745 Z M 192.278 301.737 C 185.242 295.111 174.166 295.445 167.541 302.482 C 160.915 309.518 161.249 320.594 168.286 327.219 C 168.286 327.219 167.519 326.398 168.286 327.219 C 168.286 327.219 176.128 338.652 182.128 344.301 C 188.17 349.99 195.735 355.392 202.739 359.167 C 216.771 366.728 234.5 371.022 250 371.022 C 265.501 371.022 283.229 366.728 297.261 359.167 C 311.203 351.653 325.097 338.531 334.638 323.621 C 339.688 315.38 337.101 304.606 328.86 299.557 C 320.619 294.507 309.845 297.094 304.796 305.335 C 298.387 316.455 290.864 322.855 280.657 328.356 C 270.538 333.809 261.383 336.022 250 336.022 C 238.617 336.022 229.462 333.809 219.343 328.356 C 214.272 325.623 210.445 322.891 206.121 318.819 C 201.753 314.707 192.278 301.737 192.278 301.737 C 193.045 302.558 192.278 301.737 192.278 301.737 Z" style="fill-opacity: 1; fill-rule: nonzero; stroke: none;" id="path26"/>
</svg>